# xmcd
#
# Track frame offsets:
#	150
#	16800
#	33000
#	46575
#	58350
#	71737
#	84787
#	98681
#	114056
#	127631
#	140343
#
# Disc length: 2091 seconds
#
# Revision: 0
# Processed by: cddbd v1.5.2PL0 Copyright (c) Steve Scherf et al.
# Submitted via: EasyCDDAExtractor 11.1.0.1
#
DISCID=7608290b
DTITLE=Thopper - My countryside
DYEAR=1900
DGENRE=country
TTITLE0=Crossing the North sea
TTITLE1=Blue Hawaiian rose
TTITLE2=In my dreams
TTITLE3=Don't let me down
TTITLE4=Let the new life begin
TTITLE5=Single free and easy
TTITLE6=Silver knight
TTITLE7=My little princess
TTITLE8=Raindrops are falling
TTITLE9=Letters from you
TTITLE10=If tomorrow never comes
EXTD=
EXTT0=
EXTT1=
EXTT2=
EXTT3=
EXTT4=
EXTT5=
EXTT6=
EXTT7=
EXTT8=
EXTT9=
EXTT10=
PLAYORDER=
